<svg width="1920" height="1395" viewBox="0 0 1920 1395" fill="none" xmlns="http://www.w3.org/2000/svg">
<g opacity="0.03">
<path d="M162.755 582.63C183.087 540.162 223.044 533.21 222.218 571.025C221.391 607.831 220.654 646.516 221.126 687.244C222.041 758.846 199.82 847.268 164.408 892.402C155.85 903.329 147.469 913.993 139.117 924.345C115.863 953.252 81.8383 919.784 85.9402 867.364C93.908 766.984 120.674 670.478 162.755 582.63ZM1018.58 88.8719C1126.64 93.9738 1229.9 117.269 1323.89 154.944C1371.78 174.202 1386.92 220.651 1352.54 229.678C1250.82 256.252 1125.58 269.399 974.576 312.204C885.869 337.377 772.728 344.049 700.605 323.781C633.027 304.748 573.299 290.62 520.446 275.314C483.028 264.409 498.314 215.577 553.143 187.685C691.044 117.717 852.287 81.1071 1018.58 88.8719ZM1699.43 437.087C1740.57 490.545 1744.32 558.635 1723.16 601.664C1690.55 667.963 1665.32 743.596 1632.74 828.209C1609.57 888.343 1558.76 897.824 1513.19 842.152C1430.6 741.149 1319.46 628.715 1174.51 533.182C1096.01 481.406 1086.66 412.083 1152.14 397.478C1296.29 365.605 1408.52 354.785 1500.98 328.239C1544.12 315.876 1609.13 333.481 1655.46 384.499C1670.78 401.487 1685.44 419.035 1699.43 437.087ZM1852.44 1112.82C1840.43 1166.02 1790.09 1192.23 1763.35 1165.32C1745.11 1146.97 1728 1127.94 1711.68 1108.24C1686.18 1077.33 1690.64 999.572 1716.43 948.699C1743.49 895.719 1768.6 845.446 1795.55 798.727C1814.9 765.097 1858.52 783.727 1864.89 831.214C1869.91 869.183 1872.24 907.98 1871.8 947.357C1871.03 1004.06 1864.36 1059.44 1852.44 1112.82ZM1015.18 1779.43C986.41 1780.53 957.874 1780.23 929.721 1778.71C878.285 1775.86 856.831 1738.27 893.276 1718.85C1058.33 1630.89 1273.16 1530.52 1451.58 1342.33C1508.71 1281.96 1565.49 1255.6 1590.57 1284.35C1613.26 1310.43 1637.17 1335.74 1662.99 1360.84C1692.32 1389.36 1689.78 1451.78 1646.23 1498.12C1492.01 1661.69 1263.78 1770.35 1015.18 1779.43ZM585.457 631.154C690.011 561.466 832.485 560.233 935.918 628.099C1034.92 693.161 1131.36 771.27 1214.67 852.942C1288.39 925.444 1347.64 991.799 1397.04 1049.28C1442.93 1102.67 1431.95 1204.23 1367.97 1275.93C1268.53 1387.18 1155.65 1473.04 1049.83 1537.64C959.084 1593.09 876.042 1632.33 805.897 1671.23C774.439 1688.59 709.222 1674.49 689.982 1646.25C644.536 1579.5 585.929 1506.44 527.676 1412.83C458.416 1301.55 393.523 1163.96 358.111 1007.88C335.418 907.671 371.362 798.052 442.894 738.102C485.566 702.398 532.959 666.138 585.457 631.154ZM357.787 397.506C361.358 370.539 405.918 338.302 425.099 348.338C460.452 367.035 499.583 385.76 543.317 406.953C586.195 428.51 555.593 501.505 485.3 556.028C470.043 567.885 455.17 579.855 440.828 591.993C379.683 643.516 329.457 629.808 335.595 569.736C342.058 506.159 351.147 449.365 357.787 397.506ZM128.228 1195.97C104.591 1127.89 119.582 1061.44 150.597 1029.93C161.339 1019.05 172.08 1007.7 183.058 995.984C213.158 963.842 256.302 1001.67 280.352 1077.75C322.729 1211.41 387.681 1331.35 458.269 1432.39C520.712 1521.67 584.601 1594.11 636.981 1662.28C657.904 1689.57 619.305 1709.24 578.05 1689.62C371.185 1590.91 202.977 1410.65 128.228 1195.97ZM977.616 1825.98C1489.65 1816.8 1922.32 1400.29 1923 913.656C1922.85 426.856 1489.91 9.59729 977.705 0.234497C458.18 -8.48352 -2.94688 418.558 -3 913.729C-2.13536 1408.57 458.475 1834.52 977.616 1825.98Z" fill="#565B68"/>
</g>
</svg>
