<svg width="25" height="25" viewBox="0 0 25 25" fill="none" xmlns="http://www.w3.org/2000/svg">
<path d="M12.8507 2.21094C7.33072 2.21094 2.86072 6.69094 2.86072 12.2109C2.86072 17.7309 7.33072 22.2109 12.8507 22.2109C18.3807 22.2109 22.8607 17.7309 22.8607 12.2109C22.8607 6.69094 18.3807 2.21094 12.8507 2.21094ZM19.7807 8.21094H16.8307C16.5107 6.96094 16.0507 5.76094 15.4507 4.65094C17.2907 5.28094 18.8207 6.56094 19.7807 8.21094ZM12.8607 4.25094C13.6907 5.45094 14.3407 6.78094 14.7707 8.21094H10.9507C11.3807 6.78094 12.0307 5.45094 12.8607 4.25094ZM5.12072 14.2109C4.96072 13.5709 4.86072 12.9009 4.86072 12.2109C4.86072 11.5209 4.96072 10.8509 5.12072 10.2109H8.50072C8.42072 10.8709 8.36072 11.5309 8.36072 12.2109C8.36072 12.8909 8.42072 13.5509 8.50072 14.2109H5.12072ZM5.94072 16.2109H8.89072C9.21072 17.4609 9.67072 18.6609 10.2707 19.7709C8.43072 19.1409 6.90072 17.8709 5.94072 16.2109ZM8.89072 8.21094H5.94072C6.90072 6.55094 8.43072 5.28094 10.2707 4.65094C9.67072 5.76094 9.21072 6.96094 8.89072 8.21094ZM12.8607 20.1709C12.0307 18.9709 11.3807 17.6409 10.9507 16.2109H14.7707C14.3407 17.6409 13.6907 18.9709 12.8607 20.1709ZM15.2007 14.2109H10.5207C10.4307 13.5509 10.3607 12.8909 10.3607 12.2109C10.3607 11.5309 10.4307 10.8609 10.5207 10.2109H15.2007C15.2907 10.8609 15.3607 11.5309 15.3607 12.2109C15.3607 12.8909 15.2907 13.5509 15.2007 14.2109ZM15.4507 19.7709C16.0507 18.6609 16.5107 17.4609 16.8307 16.2109H19.7807C18.8207 17.8609 17.2907 19.1409 15.4507 19.7709ZM17.2207 14.2109C17.3007 13.5509 17.3607 12.8909 17.3607 12.2109C17.3607 11.5309 17.3007 10.8709 17.2207 10.2109H20.6007C20.7607 10.8509 20.8607 11.5209 20.8607 12.2109C20.8607 12.9009 20.7607 13.5709 20.6007 14.2109H17.2207Z" fill="white"/>
</svg>
