<svg width="96" height="94" viewBox="0 0 96 94" fill="none" xmlns="http://www.w3.org/2000/svg">
<path d="M48.0003 0.671631C21.9774 0.671631 0.857422 21.5783 0.857422 47.3383C0.857422 73.0983 21.9774 94.005 48.0003 94.005C74.0231 94.005 95.1431 73.0983 95.1431 47.3383C95.1431 21.5783 74.0231 0.671631 48.0003 0.671631ZM48.0003 84.6716C27.2103 84.6716 10.286 67.9183 10.286 47.3383C10.286 26.7583 27.2103 10.005 48.0003 10.005C68.7903 10.005 85.7146 26.7583 85.7146 47.3383C85.7146 67.9183 68.7903 84.6716 48.0003 84.6716ZM69.6389 26.7116L38.5717 57.465L26.3617 45.425L19.7146 52.005L38.5717 70.6716L76.286 33.3383L69.6389 26.7116Z" fill="url(#paint0_linear_1136_6598)"/>
<defs>
<linearGradient id="paint0_linear_1136_6598" x1="79.8983" y1="66.6702" x2="-14.3416" y2="44.526" gradientUnits="userSpaceOnUse">
<stop stop-color="#FCC45C"/>
<stop offset="0.355" stop-color="#EE3A5E"/>
<stop offset="0.67" stop-color="#A855EE"/>
<stop offset="1" stop-color="#90E0FF"/>
</linearGradient>
</defs>
</svg>
