<svg width="25" height="25" viewBox="0 0 25 25" fill="none" xmlns="http://www.w3.org/2000/svg">
<path d="M18.4062 8.9801H17.4062V6.9801C17.4062 4.2201 15.1663 1.9801 12.4062 1.9801C9.64625 1.9801 7.40625 4.2201 7.40625 6.9801V8.9801H6.40625C5.30625 8.9801 4.40625 9.8801 4.40625 10.9801V20.9801C4.40625 22.0801 5.30625 22.9801 6.40625 22.9801H18.4062C19.5063 22.9801 20.4062 22.0801 20.4062 20.9801V10.9801C20.4062 9.8801 19.5063 8.9801 18.4062 8.9801ZM9.40625 6.9801C9.40625 5.3201 10.7463 3.9801 12.4062 3.9801C14.0662 3.9801 15.4062 5.3201 15.4062 6.9801V8.9801H9.40625V6.9801ZM18.4062 20.9801H6.40625V10.9801H18.4062V20.9801ZM12.4062 17.9801C13.5063 17.9801 14.4062 17.0801 14.4062 15.9801C14.4062 14.8801 13.5063 13.9801 12.4062 13.9801C11.3063 13.9801 10.4062 14.8801 10.4062 15.9801C10.4062 17.0801 11.3063 17.9801 12.4062 17.9801Z" fill="#BDBDBD"/>
</svg>
