<svg width="1920" height="2529" viewBox="0 0 1920 2529" fill="none" xmlns="http://www.w3.org/2000/svg">
<path d="M-161.765 758.894C-132.821 698.439 -75.942 688.542 -77.1182 742.373C-78.2944 794.767 -79.3443 849.836 -78.6722 907.813C-77.3699 1009.74 -109.002 1135.61 -159.412 1199.86C-171.594 1215.41 -183.525 1230.59 -195.413 1245.33C-228.515 1286.48 -276.951 1238.84 -271.112 1164.22C-259.769 1021.32 -221.668 883.946 -161.765 758.894ZM1056.51 56.0195C1210.35 63.282 1357.33 96.4426 1491.13 150.074C1559.31 177.488 1580.86 243.61 1531.92 256.459C1387.12 294.288 1208.83 313.003 993.878 373.937C867.602 409.771 706.543 419.268 603.875 390.417C507.677 363.322 422.652 343.211 347.416 321.423C294.15 305.9 315.91 236.387 393.961 196.682C590.265 97.0811 819.797 44.9661 1056.51 56.0195ZM2025.72 551.711C2084.28 627.808 2089.62 724.736 2059.5 785.989C2013.08 880.366 1977.16 988.032 1930.79 1108.48C1897.81 1194.08 1825.47 1207.58 1760.61 1128.33C1643.03 984.548 1484.83 824.496 1278.48 688.502C1166.74 614.799 1153.43 516.116 1246.64 495.326C1451.85 449.955 1611.61 434.552 1743.22 396.762C1804.64 379.165 1897.18 404.224 1963.13 476.85C1984.93 501.032 2005.81 526.012 2025.72 551.711ZM2243.54 1513.64C2226.44 1589.35 2154.77 1626.66 2116.71 1588.37C2090.75 1562.24 2066.39 1535.16 2043.16 1507.11C2006.86 1463.11 2013.21 1352.42 2049.92 1280C2088.44 1204.58 2124.19 1133.02 2162.54 1066.51C2190.1 1018.64 2252.19 1045.16 2261.26 1112.76C2268.4 1166.81 2271.72 1222.03 2271.09 1278.09C2270 1358.8 2260.51 1437.64 2243.54 1513.64ZM1051.68 2462.56C1010.72 2464.13 970.102 2463.69 930.026 2461.54C856.806 2457.48 826.266 2403.97 878.146 2376.33C1113.1 2251.11 1418.92 2108.23 1672.9 1840.34C1754.23 1754.4 1835.05 1716.87 1870.76 1757.8C1903.06 1794.92 1937.09 1830.96 1973.84 1866.7C2015.6 1907.29 2011.99 1996.15 1949.98 2062.12C1730.45 2294.96 1405.56 2449.63 1051.68 2462.56ZM439.96 827.968C588.794 728.766 791.609 727.01 938.848 823.619C1079.78 916.236 1217.07 1027.43 1335.66 1143.69C1440.59 1246.9 1524.95 1341.35 1595.27 1423.18C1660.59 1499.18 1644.96 1643.75 1553.89 1745.82C1412.32 1904.19 1251.64 2026.41 1101 2118.37C971.824 2197.3 853.614 2253.16 753.76 2308.54C708.98 2333.25 616.142 2313.17 588.752 2272.98C524.06 2177.95 440.632 2073.95 357.708 1940.69C259.115 1782.29 166.739 1586.43 116.329 1364.25C84.0249 1221.6 135.191 1065.55 237.019 980.211C297.762 929.385 365.227 877.768 439.96 827.968ZM115.867 495.366C120.95 456.978 184.382 411.088 211.688 425.374C262.013 451.99 317.716 478.646 379.972 508.813C441.01 539.5 397.447 643.411 297.384 721.024C275.666 737.904 254.494 754.943 234.078 772.222C147.037 845.566 75.5393 826.053 84.277 740.538C93.4768 650.035 106.415 569.189 115.867 495.366ZM-210.914 1632C-244.562 1535.08 -223.222 1440.49 -179.072 1395.63C-163.781 1380.15 -148.49 1363.99 -132.863 1347.31C-90.0144 1301.56 -28.5988 1355.41 5.63776 1463.71C65.9614 1653.97 158.421 1824.71 258.905 1968.55C347.794 2095.63 438.741 2198.76 513.306 2295.8C543.089 2334.64 488.143 2362.64 429.416 2334.71C134.939 2194.2 -104.507 1937.59 -210.914 1632ZM998.206 2528.82C1727.09 2515.75 2343.01 1922.85 2343.98 1230.12C2343.77 537.146 1727.47 -56.8296 998.331 -70.1575C258.779 -82.5679 -397.644 525.334 -397.72 1230.22C-396.489 1934.64 259.199 2540.98 998.206 2528.82Z" fill="#565B68"/>
</svg>
